<?xml version="1.0" encoding="UTF-8"?>
<svg id="Layer_1" xmlns="http://www.w3.org/2000/svg" xmlns:xlink="http://www.w3.org/1999/xlink" version="1.1" viewBox="0 0 725.06 724.82">
  <!-- Generator: Adobe Illustrator 29.0.1, SVG Export Plug-In . SVG Version: 2.1.0 Build 192)  -->
  <defs>
    <style>
      .st0 {
        fill: url(#linear-gradient2);
      }

      .st1 {
        fill: url(#linear-gradient1);
      }

      .st2 {
        fill: url(#linear-gradient);
      }
    </style>
    <linearGradient id="linear-gradient" x1="671.57" y1="599.9" x2="188.27" y2="219.43" gradientUnits="userSpaceOnUse">
      <stop offset="0" stop-color="#a900ff"/>
      <stop offset="1" stop-color="#00e5ff"/>
    </linearGradient>
    <linearGradient id="linear-gradient1" x1="669.35" y1="602.72" x2="186.05" y2="222.25" xlink:href="#linear-gradient"/>
    <linearGradient id="linear-gradient2" x1="669.64" y1="602.35" x2="186.34" y2="221.88" xlink:href="#linear-gradient"/>
  </defs>
  <path class="st2" d="M670.75,54.19c-8.34-8.34-21.81-8.54-30.39-.45L61.86,599.32c-6.59,6.22-11.12,14.18-13.08,23.03-3.36,15.13,1.17,30.71,12.14,41.68,8.58,8.58,19.99,13.22,31.8,13.22,3.28,0,6.59-.36,9.87-1.09,8.84-1.96,16.81-6.49,23.03-13.08L671.19,84.58c8.09-8.58,7.9-22.05-.45-30.39Z"/>
  <path class="st1" d="M661.8,158.12l-54.6,57.88c25.67,42.78,40.44,92.88,40.44,146.41,0,157.51-127.72,285.23-285.23,285.23-47.55,0-92.41-11.64-131.84-32.28l-54.56,57.88c54.46,32.75,118.25,51.58,186.41,51.58,200.16,0,362.41-162.25,362.41-362.41,0-75.77-23.25-146.11-63.02-204.29ZM362.41,77.18c53.59,0,103.72,14.8,146.54,40.54l57.88-54.6C508.65,23.29,438.25,0,362.41,0,162.25,0,0,162.25,0,362.41c0,68.22,18.86,132.04,51.68,186.54l57.85-54.56c-20.67-39.46-32.35-84.36-32.35-131.98,0-157.51,127.72-285.23,285.23-285.23Z"/>
  <path class="st0" d="M362.41,130.87c-127.88,0-231.54,103.66-231.54,231.54,0,33.22,6.98,64.8,19.6,93.35l58.82-55.47c-3.02-12.15-4.6-24.83-4.6-37.89,0-87.11,70.6-157.72,157.72-157.72,16.31,0,32.01,2.48,46.81,7.05l58.79-55.44c-31.64-16.27-67.55-25.44-105.6-25.44ZM568.58,256.94l-55.47,58.82c4.56,14.73,7.01,30.4,7.01,46.64,0,87.11-70.6,157.72-157.72,157.72-12.99,0-25.64-1.58-37.72-4.53l-55.5,58.82c28.52,12.55,60.03,19.53,93.22,19.53,127.88,0,231.54-103.66,231.54-231.54,0-37.99-9.16-73.86-25.37-105.47Z"/>
</svg>